<svg width="55" height="61" viewBox="0 0 55 61" fill="none" xmlns="http://www.w3.org/2000/svg">
<path d="M51.82 3.08394C51.7224 3.04456 51.6646 3.03404 51.6419 3.0312C51.6407 3.03188 51.6394 3.03261 51.6381 3.03342C51.6141 3.04722 51.5587 3.0839 51.4764 3.1663L13.8199 40.8715C13.6869 41.0227 13.6502 41.111 13.6419 41.1354C13.6435 41.1466 13.6504 41.1841 13.6792 41.2516C13.6996 41.2997 13.7169 41.3308 13.7284 41.3491C13.7613 41.357 13.8305 41.3691 13.9468 41.3691H51.6444C51.8071 41.3691 51.8875 41.3451 51.914 41.3354C51.9344 41.3279 51.9424 41.3224 51.9554 41.31M51.82 3.08394L52.662 1M51.82 3.08394C51.8967 3.11491 51.9419 3.14122 51.9649 3.15659C51.9714 3.18587 51.9805 3.24395 51.9805 3.33873V41.1409C51.9805 41.2032 51.9754 41.2451 51.971 41.27C51.968 41.2866 51.9652 41.2966 51.9636 41.3015C51.9618 41.3035 51.9591 41.3062 51.9554 41.31M51.9554 41.31L53.5322 42.9476" stroke="#00B7AF" stroke-width="3.42857"/>
<path d="M12.678 54.7704H19.2026C19.4855 54.7704 19.7242 54.6639 19.9187 54.451C20.1131 54.238 20.2105 54.0072 20.2105 53.7587C20.2105 53.4392 20.1131 53.1731 19.9187 52.9601C19.7242 52.7471 19.4855 52.6406 19.2026 52.6406H12.678C12.3597 52.6406 12.1032 52.7471 11.9088 52.9601C11.7143 53.1731 11.6171 53.4392 11.6171 53.7587C11.6171 54.0072 11.7143 54.238 11.9088 54.451C12.1032 54.6639 12.3597 54.7704 12.678 54.7704ZM4.82716 61C3.51869 61 2.38706 60.5207 1.43223 59.5623C0.477411 58.6039 0 57.4681 0 56.1548V16.9673C0 15.654 0.477411 14.518 1.43223 13.5597C2.38706 12.6013 3.51869 12.1221 4.82716 12.1221H27.0003C28.3087 12.1221 29.4404 12.6013 30.3952 13.5597C31.3501 14.518 31.8275 15.654 31.8275 16.9673V56.1548C31.8275 57.4681 31.3501 58.6039 30.3952 59.5623C29.4404 60.5207 28.3087 61 27.0003 61H4.82716ZM4.82716 48.2747H27.0003V21.6528H4.82716V48.2747Z" fill="#1D1068"/>
</svg>
